<svg xmlns="http://www.w3.org/2000/svg" viewBox="0 0 68 68"><style>.st0{fill:#010101}</style><path class="st0" d="M63.7 8H32.6l-3-4.6s0-.1-.1-.1C28.2 1.8 26.4 1 24.4 1H3.1C1.9 1 1 1.9 1 3.1v45.4c0 1.8 1.5 3.2 3.3 3.2h19.1c.6 0 1-.4 1-1s-.4-1-1-1H4.3c-.7 0-1.3-.5-1.3-1.2V19.7h62v28.8c0 .7-.6 1.2-1.3 1.2h-1.8c-.6 0-1 .4-1 1s.4 1 1 1h1.8c1.8 0 3.3-1.4 3.3-3.2V11.3C67 10 65.6 8 63.7 8zM3 17.7V3.1C3 3 3 3 3.1 3h21.3c1.4 0 2.7.6 3.5 1.6l3.3 5c.2.3.5.4.8.4h31.6c.7 0 1.3.9 1.3 1.2v6.5H3z"/><path class="st0" d="M51.3 42.8L62.1 33c.7-.6 1.1-1.4 1.1-2.3 0-.9-.3-1.8-.9-2.4l-2.8-3.1c-1.3-1.4-3.4-1.5-4.8-.2l-4.6 4s-.1 0-.1.1L43.5 35 32.3 23.6c-.4-.4-1-.4-1.4 0L20.5 33.8c-.2.2-.3.4-.3.7 0 .3.1.5.3.7l10.8 10.9-7.4 6.8-.2.2-7 12.4c-.2.4-.2.8.1 1.2.3.3.8.4 1.1.2l12.9-5.7c.1 0 .3-.1.4-.2l7.8-7.1c.7.7 12.4 12.6 12.4 12.6.2.2.5.3.7.3.3 0 .5-.1.7-.3l10.4-10.2c.2-.2.3-.4.3-.7 0-.3-.1-.5-.3-.7L51.3 42.8zm-3.2-3.2l5.6-5 1.7 1.8-5.5 5-1.8-1.8zM56 26.4c.6-.5 1.4-.5 2 .1l2.8 3.1c.2.3.4.6.4 1s-.2.7-.4 1l-3.9 3.5-2.3-2.6-2.3-2.6 3.7-3.5zm-5.4 4.9l1.7 1.8-5.6 5.1-1.7-1.8 5.6-5.1zM25.9 53.7l6.8-6.2 1.7 1.7-6.9 6.2-1.6-1.7zm-1.2 1.6l4.2 4.6-9 4 4.8-8.6zm5.9 3.5l-1.8-2 6.9-6.2 1.8 1.9-6.9 6.3zm21.6 5.6l-2.5-2.5 5.8-5.7c.4-.4.4-1 0-1.4-.4-.4-1-.4-1.4 0l-5.8 5.7-2.5-2.5 3.2-3.2c.4-.4.4-1 0-1.4-.4-.4-1-.4-1.4 0l-3.2 3.2-2.4-2.5 5.8-5.7c.4-.4.4-1 0-1.4-.4-.4-1-.4-1.4 0l-5.8 5.7-2.4-2.5 3.2-3.2c.4-.4.4-1 0-1.4-.4-.4-1-.4-1.4 0l-3.2 3.2-2.4-2.5 5.8-5.7c.4-.4.4-1 0-1.4-.4-.4-1-.4-1.4 0L33 44.9l-2.4-2.5 3.2-3.2c.4-.4.4-1 0-1.4-.4-.4-1-.4-1.4 0L29 41l-2.4-2.5 5.8-5.7c.4-.4.4-1 0-1.4-.4-.4-1-.4-1.4 0l-5.8 5.7-2.5-2.6 8.9-8.8 17.5 17.8 12 12.2-8.9 8.7zM6.8 28.2h15.7c.6 0 1-.4 1-1s-.4-1-1-1H6.8c-.6 0-1 .4-1 1 0 .5.5 1 1 1zM6.8 36.1h10.7c.6 0 1-.4 1-1s-.4-1-1-1H6.8c-.6 0-1 .4-1 1s.5 1 1 1z"/><path class="st0" d="M6.8 44.1h15.7c.6 0 1-.4 1-1s-.4-1-1-1H6.8c-.6 0-1 .4-1 1 0 .5.5 1 1 1z"/></svg>