<svg xmlns="http://www.w3.org/2000/svg" viewBox="0 0 100 100"><path d="M21.512 37.401h17.185v3.283H21.512zM.476 37.401h17.188v3.283H.476zM42.545 37.401h17.183v3.283H42.545zM76.501 42.023l16.096 6.72.963-3.156-16.088-6.718zM57.44 14.335H44.827c-1.263 0-2.282 1.309-2.282 2.909v17.715h17.183V17.244c0-1.599-1.019-2.909-2.288-2.909zM97.432 25.153l-11.943-4.529c-1.192-.453-2.504.284-2.922 1.659l-4.381 14.244 16.096 6.719 4.548-14.802c.423-1.366-.206-2.841-1.398-3.291zM15.377 14.271H2.761C1.497 14.271.476 15.71.476 17.5v17.46h17.188V17.5c-.001-1.791-1.023-3.229-2.287-3.229zM36.408 23.264H23.794c-1.264 0-2.282 1.144-2.282 2.559v9.136h17.185v-9.136c-.001-1.415-1.025-2.559-2.289-2.559zM42.545 85.6c0 1.6 1.02 2.9 2.282 2.9H57.44c1.269 0 2.287-1.301 2.287-2.9V43.124H42.545V85.6zM21.512 85.947c0 1.412 1.019 2.553 2.282 2.553h12.614c1.264 0 2.288-1.141 2.288-2.553V43.124H21.512v42.823zM64.661 80.539c-.417 1.371.212 2.842 1.404 3.296l11.942 4.532c1.192.45 2.504-.287 2.922-1.658l10.945-35.627-16.096-6.717-11.117 36.174zM.476 85.272c0 1.78 1.021 3.228 2.285 3.228h12.617c1.263 0 2.286-1.447 2.286-3.228V43.124H.476v42.148z"/></svg>