<svg xmlns:dc="http://purl.org/dc/elements/1.1/" xmlns:cc="http://creativecommons.org/ns#" xmlns:rdf="http://www.w3.org/1999/02/22-rdf-syntax-ns#" xmlns:svg="http://www.w3.org/2000/svg" xmlns="http://www.w3.org/2000/svg" xmlns:sodipodi="http://sodipodi.sourceforge.net/DTD/sodipodi-0.dtd" xmlns:inkscape="http://www.inkscape.org/namespaces/inkscape" version="1.1" x="0px" y="0px" viewBox="0 0 100 100"><g transform="translate(0,-952.36218)"><path style="text-indent:0;text-transform:none;direction:ltr;block-progression:tb;baseline-shift:baseline;color:#000000;enable-background:accumulate;" d="M 12 16 C 8.782154 16 6 18.50041 6 21.71875 L 6 70.25 C 6 73.4683 8.782154 76 12 76 L 40 76 L 40 86 L 36 86 A 2.0001998 2.0001998 0 0 0 35.8125 86 A 2.0021961 2.0021961 0 1 0 36 90 L 64 90 A 2.0001998 2.0001998 0 1 0 64 86 L 60 86 L 60 76 L 88 76 C 91.217846 76 94 73.4683 94 70.25 L 94 21.71875 C 94 18.50041 91.217846 16 88 16 L 12 16 z M 12 20 L 88 20 C 89.214156 20 90 20.80056 90 21.71875 L 90 70.25 C 90 71.1682 89.214156 72 88 72 L 12 72 C 10.785844 72 10 71.1682 10 70.25 L 10 21.71875 C 10 20.80056 10.785844 20 12 20 z M 55.75 28.96875 A 2.0002 2.0002 0 0 0 54.15625 30.25 L 42.15625 60.25 A 2.0002 2.0002 0 1 0 45.84375 61.71875 L 57.84375 31.71875 A 2.0002 2.0002 0 0 0 55.75 28.96875 z M 35.9375 33.96875 A 2.0002 2.0002 0 0 0 35.03125 34.25 L 17.03125 44.25 A 2.0002 2.0002 0 0 0 17.03125 47.75 L 35.03125 57.75 A 2.0002441 2.0002441 0 0 0 36.96875 54.25 L 22.125 46 L 36.96875 37.75 A 2.0002 2.0002 0 0 0 35.9375 33.96875 z M 63.8125 33.96875 A 2.0002 2.0002 0 0 0 63.03125 37.75 L 77.875 46 L 63.03125 54.25 A 2.0002441 2.0002441 0 0 0 64.96875 57.75 L 82.96875 47.75 A 2.0002 2.0002 0 0 0 82.96875 44.25 L 64.96875 34.25 A 2.0002 2.0002 0 0 0 63.8125 33.96875 z M 44 76 L 56 76 L 56 86 L 44 86 L 44 76 z " transform="translate(0,952.36218)" fill="#000000" fill-opacity="1" stroke="none" marker="none" visibility="visible" display="inline" overflow="visible"></path></g></svg>