<svg xmlns="http://www.w3.org/2000/svg" viewBox="0 0 100 100"><path d="M59.7 3.7c-21 0-38 14.9-38 33.4s17 33.4 38 33.4c7.6 0 14.7-2 20.7-5.4 5.4 3.2 11.2 3.1 14.5 2.6 1-.1 1.2-1.4.4-1.9-3.3-2.1-5-5.1-6-7.8 5.3-5.7 8.5-13 8.5-21 0-18.4-17.1-33.3-38.1-33.3zm22.4 47.4H56.2v-5.9h25.9v5.9zm0-11.1H37.4v-5.9h44.7V40zm0-11.1H37.4V23h44.7v5.9zM59.7 77c1.5 0 3-.1 4.4-.2-4 11.3-16 19.6-30.3 19.6-6.3 0-12.2-1.6-17.2-4.5-4.5 2.7-9.3 2.6-12.1 2.2-.8-.1-1-1.1-.3-1.6 2.7-1.8 4.2-4.3 5-6.5-4.4-4.8-7-10.8-7-17.4 0-9.5 5.5-18 13.9-23C20.5 63.5 38.4 77 59.7 77z"/></svg>