<svg xmlns="http://www.w3.org/2000/svg" viewBox="0 0 100 100"><path d="M72.955 17.969l-22.41 22.41c5.637 11.592 3.65 25.958-5.978 35.585-9.45 9.451-23.469 11.543-34.946 6.285 17.658 17.15 45.87 17.003 63.333-.461 17.625-17.623 17.625-46.196.001-63.819z"/><path d="M58.281 47.966c-12.855 3.768-26.293-3.047-31.006-15.339-7.596 6.311-11.149 16.751-8.194 26.831 3.966 13.531 18.151 21.284 31.682 17.317 13.53-3.967 21.284-18.15 17.317-31.682a25.574 25.574 0 0 0-.675-1.979 25.458 25.458 0 0 1-9.124 4.852z"/><circle cx="59.292" cy="32.235" r="19.743"/><path d="M63.206 17.134L85.582 6.98 69.975 26.159"/><path d="M67.625 21.553L90 11.399l-15.606 19.18"/></svg>
